<svg width="18" height="16" viewBox="0 0 18 16" fill="none" xmlns="http://www.w3.org/2000/svg">
<path d="M15.6442 2.29644C15.0296 1.62791 13.921 1.58691 13.1822 2.32407L5.94636 9.54421C5.75877 9.7314 5.75877 9.96851 5.94636 10.1557C6.13396 10.3429 6.37158 10.3429 6.55918 10.1557L12.5444 4.18348C12.7129 4.02111 12.9385 3.93126 13.1728 3.9333C13.407 3.93533 13.631 4.02907 13.7967 4.19434C13.9623 4.35961 14.0562 4.58318 14.0583 4.81689C14.0603 5.05061 13.9703 5.27577 13.8075 5.44389L7.82233 11.4161C7.61835 11.6255 7.37435 11.792 7.10475 11.9057C6.83516 12.0194 6.54545 12.078 6.25277 12.078C5.96009 12.078 5.67038 12.0194 5.40079 11.9057C5.13119 11.792 4.88719 11.6255 4.68321 11.4161C4.47332 11.2126 4.30647 10.9691 4.19253 10.7001C4.0786 10.4311 4.0199 10.142 4.0199 9.84996C4.0199 9.55791 4.0786 9.26883 4.19253 8.99982C4.30647 8.73082 4.47332 8.48734 4.68321 8.28381L11.9191 1.06367C13.3189 -0.334009 15.5951 -0.379469 16.9484 1.07704C18.3349 2.47561 18.3751 4.73524 16.9216 6.08033L8.44765 14.5359C6.49128 16.488 3.42364 16.488 1.46727 14.5359C-0.489091 12.5838 -0.489091 9.52282 1.46727 7.57071L8.70314 0.350567C8.87162 0.188196 9.09727 0.0983502 9.3315 0.100381C9.56572 0.102412 9.78978 0.196157 9.9554 0.361425C10.121 0.526694 10.215 0.750262 10.217 0.983977C10.2191 1.21769 10.129 1.44286 9.96629 1.61097L2.73042 8.83111C1.47085 10.088 1.47085 12.0187 2.73042 13.2755C3.99 14.5324 5.92492 14.5324 7.1845 13.2755L15.671 4.80744L15.6987 4.7807C16.3687 4.16833 16.4098 3.06124 15.671 2.32407L15.6442 2.29644Z" fill="#212230"/>
</svg>
