<svg width="14" height="11" viewBox="0 0 14 11" fill="none"
  xmlns="http://www.w3.org/2000/svg">
  <path d="M0.8 4.58988H0V0.000596825H0.8V4.58988ZM2.2 3.78332C2.32361 3.786 2.442 3.83404 2.533 3.91842C2.5737 3.95065 2.60676 3.99163 2.62977 4.03837C2.65278 4.08512 2.66516 4.13644 2.666 4.18862C2.66516 4.24079 2.65278 4.29212 2.62977 4.33886C2.60676 4.3856 2.5737 4.42658 2.533 4.45881C2.442 4.5432 2.32361 4.59123 2.2 4.59391C2.07639 4.59123 1.958 4.5432 1.867 4.45881C1.79677 4.38425 1.75043 4.2901 1.734 4.18862C1.75043 4.08713 1.79677 3.99299 1.867 3.91842C1.95755 3.83294 2.076 3.78381 2.2 3.7803V3.78332ZM5.333 2.77513H4.466V4.53039H3.666V0.000596825H5.333C5.77846 -0.00945428 6.21768 0.107625 6.6 0.338339C6.74586 0.462057 6.8632 0.616354 6.94386 0.790476C7.02451 0.964598 7.06654 1.15436 7.067 1.34653C7.07224 1.60808 7.00281 1.86565 6.867 2.08856C6.71226 2.29715 6.50514 2.46037 6.267 2.5614L7.333 4.45579V4.52334H6.266L5.333 2.77513ZM4.466 2.17022H5.333C5.57091 2.17596 5.80447 2.10535 6 1.96858C6.13375 1.82148 6.20548 1.62768 6.2 1.42819C6.20901 1.32876 6.19572 1.22856 6.16109 1.13501C6.12647 1.04147 6.07141 0.95698 6 0.887805C5.80185 0.746089 5.57332 0.653514 5.333 0.617608H4.466V2.17022ZM8.133 3.7803C8.24631 3.77825 8.35642 3.81817 8.44249 3.89249C8.52855 3.96682 8.5846 4.07039 8.6 4.18358C8.59916 4.23575 8.58678 4.28708 8.56377 4.33382C8.54076 4.38056 8.5077 4.42154 8.467 4.45377C8.37727 4.54047 8.25779 4.58887 8.1335 4.58887C8.00921 4.58887 7.88973 4.54047 7.8 4.45377C7.74515 4.39368 7.70968 4.31822 7.6983 4.23737C7.68691 4.15652 7.70014 4.07408 7.73623 4.00098C7.77233 3.92787 7.82959 3.86753 7.90043 3.82795C7.97128 3.78836 8.05238 3.77241 8.133 3.7803ZM0.800001 10.998H0V6.4087H0.800001V10.998ZM3.533 9.24273H2.6V10.998H1.8V6.4087H3.467C3.91247 6.39865 4.35168 6.51573 4.734 6.74645C4.87986 6.87016 4.9972 7.02446 5.07786 7.19858C5.15851 7.3727 5.20054 7.56246 5.201 7.75464C5.20623 8.01619 5.13681 8.27375 5.001 8.49666C4.84626 8.70526 4.63914 8.86848 4.401 8.96951L5.334 10.9264V10.994H4.467L3.533 9.24273ZM2.6 8.63781H3.467C3.70491 8.64355 3.93847 8.57294 4.134 8.43617C4.26775 8.28907 4.33948 8.09526 4.334 7.89578C4.34301 7.79635 4.32972 7.69615 4.2951 7.60261C4.26047 7.50906 4.20542 7.42457 4.134 7.35539C4.04222 7.2779 3.93574 7.22007 3.82107 7.1854C3.7064 7.15074 3.58593 7.13997 3.467 7.15375H2.6V8.63781ZM8.533 9.92023H6.733L6.333 11H5.466L7.266 6.41072H8L9.733 11H8.933L8.533 9.92023ZM6.933 9.31531H8.266L7.6 7.42092L6.933 9.31531ZM14 10.999H13.2L11.133 7.75968V10.999H10.333V6.4087H11.133L13.2 9.64903V6.4087H14V10.999Z" fill="white"/>
</svg>
