<svg xmlns="http://www.w3.org/2000/svg" width="24" height="24" viewBox="0 0 24 24">
    <g fill="none" fill-rule="evenodd">
        <path d="M0 0h24v24H0z"/>
        <path fill="#BC0007" fill-rule="nonzero" d="M3.867 22c-.48 0-.962-.1-1.442-.398-1.346-.796-1.827-2.687-1.058-4.08L9.54 3.393a2.36 2.36 0 0 1 .961-.995 2.859 2.859 0 0 1 2.211-.298c.77.199 1.346.696 1.827 1.393l8.076 14.03c.289.497.385.994.385 1.492 0 .796-.288 1.592-.865 2.09-.481.596-1.154.895-1.923.895H3.867z"/>
        <path fill="#FFF" fill-rule="nonzero" d="M13 13c0 .6-.4 1-1 1s-1-.4-1-1V9c0-.6.4-1 1-1s1 .4 1 1v4zm-1 5a1 1 0 1 1 0-2 1 1 0 0 1 0 2z"/>
    </g>
</svg>
