<svg width="18" height="16" viewBox="0 0 18 16" fill="none" xmlns="http://www.w3.org/2000/svg">
<path d="M0.818182 8H3.27273C3.48972 8 3.69783 7.91571 3.85127 7.76569C4.00471 7.61566 4.09091 7.41217 4.09091 7.2C4.09091 6.98783 4.00471 6.78434 3.85127 6.63432C3.69783 6.48429 3.48972 6.4 3.27273 6.4H2.97409L3.45355 5.0464H6.36464L6.84409 6.4H6.54545C6.32846 6.4 6.12035 6.48429 5.96691 6.63432C5.81347 6.78434 5.72727 6.98783 5.72727 7.2C5.72727 7.41217 5.81347 7.61566 5.96691 7.76569C6.12035 7.91571 6.32846 8 6.54545 8H9C9.217 8 9.4251 7.91571 9.57854 7.76569C9.73198 7.61566 9.81818 7.41217 9.81818 7.2C9.81818 6.98783 9.73198 6.78434 9.57854 6.63432C9.4251 6.48429 9.217 6.4 9 6.4H8.57618L6.50045 0.5384C6.44482 0.381197 6.34046 0.24486 6.20188 0.148362C6.0633 0.0518635 5.8974 4.04866e-06 5.72727 0H4.09091C3.92078 4.04866e-06 3.75488 0.0518635 3.6163 0.148362C3.47773 0.24486 3.37336 0.381197 3.31773 0.5384L1.242 6.4H0.818182C0.601187 6.4 0.393079 6.48429 0.23964 6.63432C0.086201 6.78434 0 6.98783 0 7.2C0 7.41217 0.086201 7.61566 0.23964 7.76569C0.393079 7.91571 0.601187 8 0.818182 8ZM4.67345 1.6H5.14473L5.79927 3.4464H4.01973L4.67345 1.6ZM18 1.6C18 1.81217 17.9138 2.01566 17.7604 2.16569C17.6069 2.31571 17.3988 2.4 17.1818 2.4H11.4545C11.2375 2.4 11.0294 2.31571 10.876 2.16569C10.7226 2.01566 10.6364 1.81217 10.6364 1.6C10.6364 1.38783 10.7226 1.18434 10.876 1.03431C11.0294 0.884285 11.2375 0.8 11.4545 0.8H17.1818C17.3988 0.8 17.6069 0.884285 17.7604 1.03431C17.9138 1.18434 18 1.38783 18 1.6ZM18 6.4C18 6.61217 17.9138 6.81566 17.7604 6.96569C17.6069 7.11571 17.3988 7.2 17.1818 7.2H11.4545C11.2375 7.2 11.0294 7.11571 10.876 6.96569C10.7226 6.81566 10.6364 6.61217 10.6364 6.4C10.6364 6.18783 10.7226 5.98434 10.876 5.83431C11.0294 5.68429 11.2375 5.6 11.4545 5.6H17.1818C17.3988 5.6 17.6069 5.68429 17.7604 5.83431C17.9138 5.98434 18 6.18783 18 6.4ZM18 10.4C18 10.6122 17.9138 10.8157 17.7604 10.9657C17.6069 11.1157 17.3988 11.2 17.1818 11.2H0.818182C0.601187 11.2 0.393079 11.1157 0.23964 10.9657C0.086201 10.8157 0 10.6122 0 10.4C0 10.1878 0.086201 9.98434 0.23964 9.83432C0.393079 9.68429 0.601187 9.6 0.818182 9.6H17.1818C17.3988 9.6 17.6069 9.68429 17.7604 9.83432C17.9138 9.98434 18 10.1878 18 10.4ZM18 15.2C18 15.4122 17.9138 15.6157 17.7604 15.7657C17.6069 15.9157 17.3988 16 17.1818 16H0.818182C0.601187 16 0.393079 15.9157 0.23964 15.7657C0.086201 15.6157 0 15.4122 0 15.2C0 14.9878 0.086201 14.7843 0.23964 14.6343C0.393079 14.4843 0.601187 14.4 0.818182 14.4H17.1818C17.3988 14.4 17.6069 14.4843 17.7604 14.6343C17.9138 14.7843 18 14.9878 18 15.2Z" fill="#8897A8"/>
</svg>
