<svg width="16" height="12" viewBox="0 0 16 12" fill="none" xmlns="http://www.w3.org/2000/svg">
<path fill-rule="evenodd" clip-rule="evenodd" d="M8.00001 3.20001C6.67449 3.20001 5.60001 4.27449 5.60001 5.60001C5.60001 6.92553 6.67449 8.00001 8.00001 8.00001C9.32553 8.00001 10.4 6.92553 10.4 5.60001C10.4 4.27449 9.32553 3.20001 8.00001 3.20001ZM7.20001 5.60001C7.20001 5.15817 7.55817 4.80001 8.00001 4.80001C8.44185 4.80001 8.80001 5.15817 8.80001 5.60001C8.80001 6.04185 8.44185 6.40001 8.00001 6.40001C7.55817 6.40001 7.20001 6.04185 7.20001 5.60001Z" fill="#8897A8"/>
<path fill-rule="evenodd" clip-rule="evenodd" d="M15.864 5.02456C14.0336 1.72149 11.0498 0 8 0C4.95022 0 1.96637 1.72149 0.136025 5.02456C-0.0429033 5.34752 -0.0451114 5.74568 0.128233 6.07008C1.92946 9.44104 4.93024 11.2 8 11.2C11.0698 11.2 14.0706 9.44104 15.8718 6.07008C16.0451 5.74568 16.0429 5.34752 15.864 5.02456ZM8 9.6C5.64878 9.6 3.23242 8.29792 1.67338 5.55896C3.2549 2.87691 5.65855 1.6 8 1.6C10.3414 1.6 12.7451 2.87691 14.3266 5.55896C12.7676 8.29792 10.3512 9.6 8 9.6Z" fill="#8897A8"/>
</svg>
