<svg width="14" height="9" viewBox="0 0 14 9" fill="none"
  xmlns="http://www.w3.org/2000/svg">
  <path d="M0.00610352 0.0012207H13.9981V8.99991H0.00610352V0.0012207Z" fill="white"/>
  <path d="M0.00610352 6.00073H13.9981V8.99994H0.00610352V6.00073Z" fill="#DA0000"/>
  <path d="M7.19292 3.8665L7.30692 3.9887V4.60183L7.24992 5.39719C7.37168 5.32791 7.4713 5.22114 7.53592 5.09062C7.63434 4.91441 7.68633 4.71288 7.68633 4.5075C7.68633 4.30212 7.63434 4.10059 7.53592 3.92438C7.69994 4.07152 7.80801 4.27795 7.8397 4.50468C7.87139 4.73141 7.82451 4.96273 7.70792 5.15493C7.6239 5.30617 7.50601 5.43254 7.36492 5.5226C7.49172 5.57717 7.62894 5.59813 7.76492 5.5837C7.61762 5.64508 7.45422 5.64508 7.30692 5.5837V5.6448L7.19292 5.767L7.13592 5.6448V5.5837C6.9846 5.61438 6.82924 5.61438 6.67792 5.5837C6.81377 5.59353 6.95004 5.57271 7.07792 5.5226C6.90988 5.45161 6.769 5.32212 6.67792 5.15493C6.5779 4.95821 6.54057 4.73185 6.57162 4.5103C6.60267 4.28875 6.70039 4.08413 6.84992 3.9276C6.75171 4.09247 6.69953 4.28401 6.69953 4.47963C6.69953 4.67525 6.75171 4.86679 6.84992 5.03166C6.91454 5.16218 7.01416 5.26896 7.13592 5.33823L7.07792 4.6029V3.9887C7.13492 3.9887 7.13492 3.9276 7.19192 3.8665H7.19292ZM7.59292 3.9276C7.73749 3.97187 7.86764 4.05855 7.9687 4.17787C8.06977 4.29719 8.13773 4.4444 8.16492 4.6029C8.1818 4.7568 8.1587 4.9127 8.09818 5.05342C8.03765 5.19414 7.94205 5.31421 7.82192 5.4004C7.96528 5.16466 8.02621 4.88216 7.99392 4.6029C7.93903 4.33429 7.79736 4.09511 7.59392 3.9276H7.59292ZM6.79292 3.9276C6.58948 4.09511 6.44781 4.33429 6.39292 4.6029C6.36063 4.88216 6.42156 5.16466 6.56492 5.4004C6.44479 5.31421 6.34919 5.19414 6.28866 5.05342C6.22814 4.9127 6.20504 4.7568 6.22192 4.6029C6.24895 4.44466 6.31661 4.29763 6.4173 4.17834C6.518 4.05904 6.64773 3.97221 6.79192 3.9276H6.79292ZM7.02192 3.8665C6.96492 3.8054 6.90792 3.7443 6.96492 3.68213C6.96701 3.7138 6.9797 3.74359 7.00064 3.76604C7.02158 3.78849 7.04938 3.80208 7.07892 3.80433C7.13592 3.80433 7.19292 3.80433 7.19292 3.74323C7.24992 3.80433 7.24992 3.80433 7.30692 3.80433C7.33664 3.80233 7.36468 3.78885 7.38583 3.76637C7.40697 3.7439 7.4198 3.71397 7.42192 3.68213C7.42586 3.71547 7.42279 3.74934 7.41293 3.78124C7.40306 3.81315 7.38666 3.84228 7.36492 3.8665H7.19292C7.13592 3.8665 7.07792 3.9276 7.02092 3.8665H7.02192Z" fill="#DA0000"/>
  <path d="M0 0H14V3.06781H0V0Z" fill="#239F40"/>
</svg>
