<svg width="14" height="9" viewBox="0 0 14 9" fill="none"
  xmlns="http://www.w3.org/2000/svg">
  <path d="M0.00610352 0.0012207H13.9981V8.99991H0.00610352V0.0012207Z" fill="white"/>
  <path d="M0.00610352 6.00073H13.9981V8.99994H0.00610352V6.00073Z" fill="#DA0000"/>
  <path d="M7.19292 3.8665L7.30692 3.9887V4.60183L7.24992 5.39719C7.37168 5.32791 7.4713 5.22114 7.53592 5.09062C7.63434 4.91441 7.68633 4.71288 7.68633 4.5075C7.68633 4.30212 7.63434 4.10059 7.53592 3.92438C7.69994 4.07152 7.80801 4.27795 7.8397 4.50468C7.87139 4.73141 7.82451 4.96273 7.70792 5.15493C7.6239 5.30617 7.50601 5.43254 7.36492 5.5226C7.49172 5.57717 7.62894 5.59813 7.76492 5.5837C7.61762 5.64508 7.45422 5.64508 7.30692 5.5837V5.6448L7.19292 5.767L7.13592 5.6448V5.5837C6.9846 5.61438 6.82924 5.61438 6.67792 5.5837C6.81377 5.59353 6.95004 5.57271 7.07792 5.5226C6.90988 5.45161 6.769 5.32212 6.67792 5.15493C6.5779 4.95821 6.54057 4.73185 6.57162 4.5103C6.60267 4.28875 6.70039 4.08413 6.84992 3.9276C6.75171 4.09247 6.69953 4.28401 6.69953 4.47963C6.69953 4.67525 6.75171 4.86679 6.84992 5.03166C6.91454 5.16218 7.01416 5.26896 7.13592 5.33823L7.07792 4.6029V3.9887C7.13492 3.9887 7.13492 3.9276 7.19192 3.8665H7.19292ZM7.59292 3.9276C7.73749 3.97187 7.86764 4.05855 7.9687 4.17787C8.06977 4.29719 8.13773 4.4444 8.16492 4.6029C8.1818 4.7568 8.1587 4.9127 8.09818 5.05342C8.03765 5.19414 7.94205 5.31421 7.82192 5.4004C7.96528 5.16466 8.02621 4.88216 7.99392 4.6029C7.93903 4.33429 7.79736 4.09511 7.59392 3.9276H7.59292ZM6.79292 3.9276C6.58948 4.09511 6.44781 4.33429 6.39292 4.6029C6.36063 4.88216 6.42156 5.16466 6.56492 5.4004C6.44479 5.31421 6.34919 5.19414 6.28866 5.05342C6.22814 4.9127 6.20504 4.7568 6.22192 4.6029C6.24895 4.44466 6.31661 4.29763 6.4173 4.17834C6.518 4.05904 6.64773 3.97221 6.79192 3.9276H6.79292ZM7.02192 3.8665C6.96492 3.8054 6.90792 3.7443 6.96492 3.68213C6.96701 3.7138 6.9797 3.74359 7.00064 3.76604C7.02158 3.78849 7.04938 3.80208 7.07892 3.80433C7.13592 3.80433 7.19292 3.80433 7.19292 3.74323C7.24992 3.80433 7.24992 3.80433 7.30692 3.80433C7.33664 3.80233 7.36468 3.78885 7.38583 3.76637C7.40697 3.7439 7.4198 3.71397 7.42192 3.68213C7.42586 3.71547 7.42279 3.74934 7.41293 3.78124C7.40306 3.81315 7.38666 3.84228 7.36492 3.8665H7.19292C7.13592 3.8665 7.07792 3.9276 7.02092 3.8665H7.02192Z" fill="#DA0000"/>
  <path d="M0 0H14V3.06781H0V0Z" fill="#239F40"/>
  <path d="M1.46508 6.49167V6.55277H1.40708V6.49167H1.46508ZM2.74808 6.49167V6.55277H2.69008V6.49167H2.74808ZM4.03108 6.49167V6.55277H3.97308V6.49167H4.03108ZM5.31408 6.49167V6.55277H5.25608V6.49167H5.31408ZM6.59708 6.49167V6.55277H6.53708V6.49167H6.59708ZM7.88008 6.49167V6.55277H7.82208V6.49167H7.88008ZM9.16308 6.49167V6.55277H9.10708V6.49167H9.16308ZM10.4461 6.49167V6.55277H10.3851V6.49167H10.4461ZM0.18408 6.49167V6.55277H0.126081V6.49167H0.18408ZM11.7281 6.49167V6.55277H11.6681V6.49167H11.7281ZM12.9521 6.49167V6.55277H12.8921V6.49167H12.9521ZM11.2021 6.1851V6.4295H11.2601V6.1851H11.3181V6.4295H11.3761V6.1851H11.4341V6.49167H11.1431V6.3684H10.9681V6.4295H11.0851V6.4906H10.8521V6.3073H11.0851V6.1851H11.2021ZM12.4851 6.1851V6.4295H12.5431V6.1851H12.6011V6.4295H12.6591V6.1851H12.7171V6.49167H12.4261V6.3684H12.2511V6.4295H12.3681V6.4906H12.1931V6.3073H12.4261V6.1851H12.4851ZM1.58508 6.3073V6.4295H1.64308V6.3073H1.81808V6.49167H1.52608V6.4295H1.35108V6.55169H1.29308V6.3073H1.58508ZM4.15008 6.3073V6.4295H4.20708V6.3073H4.38208V6.49167H4.09008V6.4295H3.91508V6.55169H3.85708V6.3073H4.15008ZM6.71508 6.3073V6.4295H6.77308V6.3073H6.94808V6.49167H6.65608V6.4295H6.48108V6.55169H6.42308V6.3073H6.71508ZM13.7671 6.1851V6.4295H13.8251V6.1851H13.8831V6.4295H13.9411V6.1851H13.9991V6.49167H13.7071V6.3684H13.5341V6.4295H13.6511V6.4906H13.4171V6.3073H13.6501V6.1851H13.7671ZM9.27708 6.3073V6.4295H9.33608V6.3073H9.50708V6.49167H9.21908V6.4295H9.04408V6.55169H8.92808V6.3073H9.27708ZM5.42908 6.3073V6.4295H5.48708V6.3073H5.66208V6.49167H5.37008V6.4295H5.19508V6.55169H5.13708V6.3073H5.42908ZM2.86408 6.3073V6.4295H2.92208V6.3073H3.09708V6.49167H2.80708V6.4295H2.63208V6.55169H2.57408V6.3073H2.86408ZM11.8431 6.3073V6.4295H11.9011V6.3073H12.0761V6.49167H11.7851V6.4295H11.6071V6.55169H11.5511V6.3073H11.8431ZM4.78808 6.1851V6.4295H4.84608V6.1851H4.90708V6.4295H4.96508V6.1851H5.02308V6.49167H4.73108V6.3684H4.55608V6.4295H4.67308V6.4906H4.49808V6.3073H4.73108V6.1851H4.78808ZM8.63608 6.1851V6.4295H8.69408V6.1851H8.75208V6.4295H8.80708V6.1851H8.86508V6.49167H8.57808V6.3684H8.40708V6.4295H8.52408V6.4906H8.28608V6.3073H8.51908V6.1851H8.63608ZM0.29808 6.3073V6.4295H0.35608V6.3073H0.58908V6.49167H0.29708V6.4295H0.12208V6.55169H0.00708008V6.3073H0.29808ZM9.91808 6.1851V6.4295H9.97708V6.1851H10.0351V6.4295H10.0931V6.1851H10.1511V6.49167H9.86008V6.3684H9.68608V6.4295H9.80708V6.4906H9.56908V6.3073H9.80708V6.1851H9.91808ZM10.5591 6.3073V6.4295H10.6171V6.3073H10.7921V6.49167H10.5021V6.4295H10.2691V6.55169H10.2071V6.3073H10.5591ZM13.1241 6.3073V6.4295H13.1821V6.3073H13.3571V6.49167H13.0671V6.4295H12.8341V6.55169H12.7761V6.3073H13.1241ZM0.94008 6.1851V6.4295H0.99808V6.1851H1.05608V6.4295H1.11408V6.1851H1.17208V6.49167H0.88008V6.3684H0.70708V6.4295H0.82408V6.4906H0.64908V6.3073H0.88208V6.1851H0.94008ZM7.35408 6.1851V6.4295H7.40708V6.1851H7.46508V6.4295H7.52308V6.1851H7.58108V6.49167H7.28908V6.3684H7.11408V6.4295H7.23108V6.4906H7.05608V6.3073H7.28908V6.1851H7.35408ZM6.07108 6.1851V6.4295H6.12908V6.1851H6.18708V6.4295H6.24508V6.1851H6.30708V6.49167H6.01508V6.3684L5.83708 6.4295V6.4906H5.95408V6.55169H5.77908V6.3073H6.01208V6.1851H6.07108ZM3.50608 6.1851V6.4295H3.56408V6.1851H3.62208V6.4295H3.68008V6.1851H3.73808V6.49167H3.44708V6.3684H3.27208V6.4295H3.38908V6.4906H3.21408V6.3073H3.44708V6.1851H3.50608ZM2.22308 6.1851V6.4295H2.28108V6.1851H2.33908V6.4295H2.39708V6.1851H2.45508V6.49167H2.16308V6.3684H1.98808V6.4295H2.10708V6.4906H1.93208V6.3073H2.16508V6.1851H2.22308ZM7.99508 6.3073V6.4295H8.05308V6.3073H8.22808V6.49167H7.93608V6.4295H7.76108V6.55169H7.70708V6.3073H7.99508ZM13.5951 6.1851V6.2462H12.7761V6.1851H13.5951ZM11.0881 6.1851V6.2462H10.2071V6.1851H11.0881ZM12.3711 6.1851V6.2462H11.5511V6.1851H12.3711ZM4.67108 6.1851V6.2462H3.85508V6.1851H4.67108ZM9.80208 6.1851V6.2462H8.92808V6.1851H9.80208ZM0.82308 6.1851V6.2462H0.00708008V6.1851H0.82308ZM2.10608 6.1851V6.2462H1.29008V6.1851H2.10608ZM3.38908 6.1851V6.2462H2.57308V6.1851H3.38908ZM7.23708 6.1851V6.2462H6.42108V6.1851H7.23708ZM8.52008 6.1851V6.2462H7.70708V6.1851H8.52008ZM5.95508 6.1851V6.2462H5.13908V6.1851H5.95508ZM3.79708 6.00073V6.12293H3.21408V6.00073H3.79708ZM4.43808 6.00073V6.12293H3.85508V6.00073H4.43808ZM8.86908 6.00073V6.12293H8.28608V6.00073H8.86908ZM9.50708 6.00073V6.12293H8.92808V6.00073H9.50708ZM10.1481 6.00073V6.12293H9.56908V6.00073H10.1481ZM6.30708 6.00073V6.12293H5.72408V6.00073H6.30708ZM11.4351 6.00073V6.12293H10.8521V6.00073H11.4351ZM12.0761 6.00073V6.12293H11.4931V6.00073H12.0761ZM12.7171 6.00073V6.12293H12.1341V6.00073H12.7171ZM13.3581 6.00073V6.12293H12.7761V6.00073H13.3581ZM13.9991 6.00073V6.12293H13.4171V6.00073H13.9991ZM5.08008 6.00073V6.12293H4.49708V6.00073H5.08008ZM2.51408 6.00073V6.12293H1.93108V6.00073H2.51408ZM1.87308 6.00073V6.12293H1.29008V6.00073H1.87308ZM1.23208 6.00073V6.12293H0.64908V6.00073H1.23208ZM7.58708 6.00073V6.12293H7.00708V6.00073H7.58708ZM3.15508 6.00073V6.12293H2.57208V6.00073H3.15508ZM8.22808 6.00073V6.12293H7.64508V6.00073H8.22808ZM5.72108 6.00073V6.12293H5.13808V6.00073H5.72108ZM0.59008 6.00073V6.12293H0.00708008V6.00073H0.59008ZM6.94508 6.00073V6.12293H6.42008V6.00073H6.94508ZM10.7931 6.00073V6.12293H10.2071V6.00073H10.7931Z" fill="white"/>
  <path d="M7.583 2.94463V3.06683H7V2.94463H7.583ZM6.3 2.94463V3.06683H5.717V2.94463H6.3ZM2.509 2.94463V3.06683H1.926V2.94463H2.509ZM8.867 2.94463V3.06683H8.283V2.94463H8.867ZM9.509 2.94463V3.06683H8.924V2.94463H9.509ZM1.868 2.94463V3.06683H1.285V2.94463H1.868ZM5.718 2.94463V3.06683H5.135V2.94463H5.718ZM13.359 2.94463V3.06683H12.774V2.94463H13.359ZM14 2.94463V3.06683H13.415V2.94463H14ZM4.434 2.94463V3.06683H3.85V2.94463H4.434ZM3.792 2.94463V3.06683H3.209V2.94463H3.792ZM3.15 2.94463V3.06683H2.567V2.94463H3.15ZM8.225 2.94463V3.06683H7.642V2.94463H8.225ZM6.942 2.94463V3.06683H6.417V2.94463H6.942ZM10.15 2.94463V3.06683H9.566V2.94463H10.15ZM12.716 2.94463V3.06683H12.132V2.94463H12.716ZM10.791 2.94463V3.06683H10.207V2.94463H10.791ZM12.074 2.94463V3.06683H11.491V2.94463H12.074ZM5.074 2.94463V3.06683H4.491V2.94463H5.074ZM11.432 2.94463V3.06683H10.849V2.94463H11.432ZM1.225 2.94463V3.06683H0.642V2.94463H1.225ZM0.583 2.94463V3.06683H0V2.94463H0.583ZM6.591 2.76026V2.82136H6.533V2.76134L6.591 2.76026ZM7.874 2.76026V2.82136H7.816V2.76134L7.874 2.76026ZM2.741 2.76026V2.82136H2.683V2.76134L2.741 2.76026ZM1.458 2.76026V2.82136H1.4V2.76134L1.458 2.76026ZM0.933 2.51587V2.76134H0.991V2.51587H1.049V2.76134H1.107V2.51587H1.165V2.82244H0.873V2.70024H0.7V2.76134H0.817V2.82244H0.642V2.63807H0.875V2.51587H0.933ZM12.482 2.51587V2.76134H12.54V2.51587H12.6V2.76134H12.658V2.51587H12.716V2.82244H12.424V2.70024H12.249V2.76134H12.366V2.82244H12.191V2.63807H12.424V2.51587H12.482ZM3.5 2.51587V2.76134H3.558V2.51587H3.616V2.76134H3.674V2.51587H3.732V2.82244H3.44V2.70024H3.265V2.76134H3.382V2.82244H3.207V2.63807H3.44V2.51587H3.5ZM11.2 2.51587V2.76134H11.258V2.51587H11.316V2.76134H11.374V2.51587H11.432V2.82244H11.141V2.70024H10.966V2.76134H11.083V2.82244H10.849V2.63807H11.082V2.51587H11.2ZM5.426 2.63807V2.76026H5.6V2.70024H5.483V2.63807H5.658V2.82244H5.366V2.70024H5.191V2.82244H5.133V2.63807H5.425H5.426ZM2.216 2.51587V2.76134H2.274V2.51587H2.332V2.76134H2.39V2.51587H2.448V2.82244H2.156V2.70024H1.981V2.76134H2.1V2.82244H1.925V2.63807H2.158V2.51587H2.216ZM10.557 2.63807V2.76026H10.732V2.70024H10.616V2.63807H10.791V2.82244H10.5V2.70024H10.266V2.82244H10.207V2.63807H10.557ZM9.157 2.76026V2.82136H9.1V2.76134L9.157 2.76026ZM4.024 2.76026V2.82136H3.966V2.76134L4.024 2.76026ZM11.724 2.76026V2.82136H11.666V2.76134L11.724 2.76026ZM4.141 2.63807V2.76026H4.316V2.70024H4.2V2.63807H4.375V2.82244H4.083V2.70024H3.908V2.82244H3.85V2.63807H4.142H4.141ZM13.765 2.51587V2.76134H13.823V2.51587H13.881V2.76134H13.94V2.51587H14V2.82244H13.707V2.70024H13.532V2.76134H13.649V2.82244H13.415V2.63807H13.648V2.51587H13.765ZM9.274 2.63807V2.76026H9.449V2.70024H9.332V2.63807H9.507V2.82244H9.216V2.70024H9.041V2.82244H8.924V2.63807H9.274ZM6.708 2.63807V2.76026H6.883V2.70024H6.766V2.63807H6.941V2.82244H6.649V2.70024H6.474V2.82244H6.416V2.63807H6.708ZM9.916 2.51587V2.76134H9.974V2.51587H10.032V2.76134H10.09V2.51587H10.148V2.82244H9.857V2.70024H9.682V2.76134H9.8V2.82244H9.566V2.63807H9.8V2.51587H9.916ZM4.783 2.51587V2.76134H4.841V2.51587H4.9V2.76134H4.958V2.51587H5.016V2.82244H4.724V2.70024H4.55V2.76134H4.667V2.82244H4.492V2.63807H4.725V2.51587H4.783ZM13.124 2.63807V2.76026H13.3V2.70024H13.182V2.63807H13.357V2.82244H13.065V2.70024H12.832V2.82244H12.774V2.63807H13.124ZM6.066 2.51587V2.76134H6.124V2.51587H6.182V2.76134H6.24V2.51587H6.3V2.82244H6.008V2.70024H5.833V2.76134H5.95V2.82244H5.775V2.63807H6.008V2.51587H6.066ZM10.441 2.76134V2.82244H10.382V2.76134H10.441ZM1.575 2.63807V2.76026H1.75V2.70024H1.633V2.63807H1.808V2.82244H1.516V2.70024H1.341V2.82244H1.283V2.63807H1.575ZM12.949 2.76134V2.82244H12.891V2.76134H12.949ZM11.841 2.63807V2.76026H12.016V2.70024H11.9V2.63807H12.075V2.82244H11.782V2.70024H11.607V2.82244H11.549V2.63807H11.841ZM5.308 2.76026V2.82136H5.25V2.76134L5.308 2.76026ZM8.633 2.51587V2.76134H8.691V2.51587H8.749V2.76134H8.807V2.51587H8.865V2.82244H8.574V2.70024H8.4V2.76134H8.517V2.82244H8.283V2.63807H8.516V2.51587H8.633ZM7.349 2.51587V2.76134H7.407V2.51587H7.465V2.76134H7.523V2.51587H7.581V2.82244H7.289V2.70024H7.114V2.76134H7.231V2.82244H7.056V2.63807H7.289V2.51587H7.347H7.349ZM7.991 2.63807V2.76026H8.166V2.70024H8.049V2.63807H8.224V2.82244H7.932V2.70024H7.757V2.82244H7.7V2.63807H7.992H7.991ZM2.858 2.63807V2.76026H3.033V2.70024H2.916V2.63807H3.091V2.82244H2.8V2.70024H2.625V2.82244H2.567V2.63807H2.859H2.858ZM0.175 2.76026V2.82136H0.117V2.76134L0.175 2.76026ZM0.292 2.63807V2.76026H0.467V2.70024H0.35V2.63807H0.583V2.82244H0.291V2.70024H0.116V2.82244H0V2.63807H0.292ZM3.383 2.51587V2.57697H2.566V2.51587H3.383ZM0.817 2.51587V2.57697H0V2.51587H0.817ZM7.233 2.51587V2.57697H6.416V2.51587H7.233ZM8.516 2.51587V2.57697H7.7V2.51587H8.516ZM2.1 2.51587V2.57697H1.283V2.51587H2.1ZM11.082 2.51587V2.57697H10.207V2.51587H11.082ZM4.666 2.51587V2.57697H3.85V2.51587H4.666ZM13.59 2.51587V2.57697H12.774V2.51587H13.59ZM5.949 2.51587V2.57697H5.132V2.51587H5.949ZM12.366 2.51587V2.57697H11.549V2.51587H12.366ZM9.8 2.51587V2.57697H8.924V2.51587H9.8Z" fill="white"/>
</svg>
